{"glyphs":{"0":{"ha":601,"x_min":0,"x_max":0,"o":"m 547 219 b 300 -21 547 76 451 -21 b 54 219 150 -21 54 76 l 54 704 b 300 944 54 849 150 944 b 547 704 451 944 547 849 l 547 219 m 389 717 b 300 797 389 761 356 797 b 213 717 246 797 213 761 l 213 208 b 300 128 213 164 246 128 b 389 208 356 128 389 164 "},"1":{"ha":343,"x_min":0,"x_max":0,"o":"m 92 0 l 92 851 b 164 925 144 851 164 886 l 251 925 l 251 0 "},"2":{"ha":550,"x_min":0,"x_max":0,"o":"m 515 706 b 325 367 515 589 458 493 b 211 147 236 269 211 201 l 508 147 l 508 0 l 35 0 l 35 49 b 225 460 35 188 71 286 b 364 710 326 567 364 629 b 279 803 364 771 335 803 b 194 707 221 803 194 767 l 194 622 l 50 622 l 50 721 b 276 946 50 835 125 946 b 515 706 451 946 515 833 "},"3":{"ha":550,"x_min":0,"x_max":0,"o":"m 510 203 b 267 -21 510 69 417 -21 b 42 199 115 -21 42 86 l 42 286 l 186 286 l 186 217 b 269 122 186 154 214 122 b 353 210 325 122 353 154 l 353 344 b 285 407 353 381 336 407 l 214 407 l 214 529 l 285 529 b 353 593 336 529 353 556 l 353 715 b 269 803 353 769 325 803 b 186 708 214 803 186 769 l 186 638 l 42 638 l 42 726 b 267 946 42 839 114 946 b 510 722 417 946 510 856 l 510 628 b 400 474 510 549 469 488 b 510 321 467 454 510 403 l 510 203 "},"4":{"ha":547,"x_min":0,"x_max":0,"o":"m 456 197 l 456 0 l 307 0 l 307 197 l 17 197 l 17 314 l 319 925 l 456 925 l 456 331 l 531 331 l 531 197 m 307 626 l 165 331 l 307 331 "},"5":{"ha":553,"x_min":0,"x_max":0,"o":"m 513 925 b 406 779 504 822 479 779 l 213 779 l 197 547 b 354 619 229 592 282 619 b 514 447 451 619 514 549 l 514 207 b 269 -21 514 69 421 -21 b 44 199 119 -21 44 89 l 44 276 l 188 276 l 188 217 b 272 122 188 160 218 122 b 357 213 328 122 357 154 l 357 421 b 288 496 357 467 328 496 b 194 422 238 496 206 461 l 56 443 l 82 925 l 513 925 "},"6":{"ha":579,"x_min":0,"x_max":0,"o":"m 538 219 b 296 -21 538 78 447 -21 b 54 219 146 -21 54 78 l 54 701 b 300 946 54 847 149 946 b 528 726 450 946 528 836 l 528 651 l 386 651 l 386 708 b 297 803 386 769 357 803 b 211 708 240 803 211 767 l 211 490 b 365 563 242 529 290 563 b 538 389 476 563 538 490 l 538 219 m 382 368 b 299 446 382 414 357 446 b 211 368 243 446 211 413 l 211 207 b 296 122 211 157 244 122 b 382 201 350 122 382 156 "},"7":{"ha":528,"x_min":0,"x_max":0,"o":"m 514 843 b 285 0 368 551 289 308 l 108 0 b 351 774 114 263 226 565 l 35 774 l 35 925 l 514 925 l 514 843 "},"8":{"ha":588,"x_min":0,"x_max":0,"o":"m 539 203 b 293 -21 539 69 444 -21 b 50 203 143 -21 50 69 l 50 315 b 138 468 50 386 85 443 b 51 621 85 492 51 549 l 51 722 b 293 946 51 856 143 946 b 536 722 444 946 536 856 l 536 621 b 450 468 536 549 503 492 b 539 315 503 443 539 386 l 539 203 m 382 715 b 293 803 382 769 344 803 b 206 715 243 803 206 769 l 206 593 b 293 511 206 551 235 511 b 382 593 353 511 382 551 m 383 339 b 293 421 383 382 353 421 b 206 339 235 421 206 382 l 206 210 b 293 122 206 156 243 122 b 383 210 344 122 383 156 "},"9":{"ha":590,"x_min":0,"x_max":0,"o":"m 538 219 b 289 -21 538 75 439 -21 b 54 196 138 -21 54 82 l 54 260 l 194 260 l 194 215 b 289 122 194 154 228 122 b 379 214 353 122 379 160 l 379 419 b 231 347 349 381 307 347 b 51 526 117 347 51 425 l 51 706 b 293 944 51 847 143 944 b 538 704 449 944 538 847 l 538 219 m 379 719 b 293 803 379 764 351 803 b 208 724 239 803 208 768 l 208 542 b 293 463 208 497 236 463 b 379 542 349 463 379 499 "},"\u0000":{"ha":694,"x_min":0,"x_max":0,"o":""}," ":{"ha":213,"x_min":0,"x_max":0,"o":""},"!":{"ha":268,"x_min":0,"x_max":0,"o":"m 157 258 l 110 258 l 58 524 l 58 925 l 210 925 l 210 524 m 68 0 l 68 161 l 199 161 l 199 0 "},"\"":{"ha":356,"x_min":0,"x_max":0,"o":"m 263 643 l 182 643 l 253 925 l 368 925 m 110 643 l 32 643 l 78 925 l 190 925 "},"#":{"ha":790,"x_min":0,"x_max":0,"o":"m 599 596 l 553 328 l 739 328 l 739 247 l 538 247 l 496 0 l 406 0 l 447 247 l 275 247 l 233 0 l 143 0 l 185 247 l 18 247 l 18 328 l 199 328 l 244 596 l 57 596 l 57 678 l 258 678 l 301 925 l 392 925 l 350 678 l 522 678 l 564 925 l 656 925 l 613 678 l 778 678 l 778 596 m 336 596 l 290 328 l 461 328 l 508 596 "},"$":{"ha":582,"x_min":0,"x_max":0,"o":"m 236 1047 l 351 1047 l 351 940 b 536 707 464 919 536 826 l 536 647 l 389 647 l 389 706 b 301 806 389 765 358 806 b 218 718 254 806 218 775 b 344 535 218 642 269 603 b 540 229 438 460 540 375 b 351 -15 540 106 467 8 l 351 -122 l 236 -122 l 236 -17 b 46 218 117 4 46 92 l 46 282 l 194 282 l 194 224 b 289 118 194 153 229 118 b 381 215 347 118 381 156 b 242 410 381 289 335 336 b 57 694 154 478 57 567 b 236 938 57 811 119 911 "},"%":{"ha":792,"x_min":0,"x_max":0,"o":"m 756 122 b 615 -22 756 32 696 -22 b 476 122 536 -22 476 32 l 476 314 b 615 457 476 403 536 457 b 756 314 696 457 756 403 l 756 122 m 664 335 b 615 379 664 361 643 379 b 569 335 589 379 569 361 l 569 101 b 615 56 569 75 589 56 b 664 101 643 56 664 75 m 139 -31 l 81 14 l 658 954 l 717 910 m 321 610 b 181 467 321 521 261 467 b 42 610 101 467 42 521 l 42 801 b 181 944 42 890 101 944 b 321 801 261 944 321 890 l 321 610 m 228 822 b 181 868 228 849 208 868 b 135 822 154 868 135 849 l 135 590 b 181 544 135 564 154 544 b 228 590 208 544 228 564 "},"&":{"ha":772,"x_min":0,"x_max":0,"o":"m 760 136 b 619 -21 760 33 707 -21 b 472 51 569 -21 519 7 b 276 -21 418 6 347 -21 b 42 221 138 -21 42 89 b 213 504 42 346 113 436 b 167 699 183 571 167 642 b 386 946 167 849 256 946 b 572 740 510 946 572 857 b 386 468 572 629 504 549 b 488 257 413 400 451 313 b 550 478 526 321 550 414 l 672 478 b 567 153 672 374 631 247 b 635 115 589 131 611 115 b 675 163 663 115 675 133 l 675 224 l 760 224 l 760 136 m 440 732 b 385 806 440 776 422 806 b 314 704 340 806 314 765 b 340 575 314 668 324 622 b 440 732 411 624 440 686 m 382 149 b 264 372 338 210 296 296 b 200 235 224 339 200 290 b 308 121 200 163 238 121 b 382 149 339 121 364 133 "},"'":{"ha":231,"x_min":0,"x_max":0,"o":"m 129 643 l 47 643 l 100 925 l 240 925 "},"(":{"ha":438,"x_min":0,"x_max":0,"o":"m 403 -231 b 114 418 211 -78 114 154 b 403 1067 114 682 211 914 l 444 1021 b 257 418 326 876 257 689 b 444 -183 257 147 326 -39 "},")":{"ha":438,"x_min":0,"x_max":0,"o":"m 326 418 b 38 -231 326 154 228 -78 l -6 -183 b 183 418 113 -39 183 147 b -6 1021 183 689 113 876 l 38 1067 b 326 418 228 914 326 682 "},"*":{"ha":421,"x_min":0,"x_max":0,"o":"m 357 629 b 332 625 351 618 339 621 b 238 697 306 640 274 663 b 253 578 247 651 253 606 b 238 558 253 569 247 558 l 186 558 b 171 578 175 558 171 569 b 186 697 171 610 174 647 b 90 624 151 664 114 638 b 65 626 83 619 71 618 l 40 671 b 49 694 35 681 42 690 b 158 740 76 710 111 726 b 49 788 114 754 71 774 b 39 810 40 792 33 800 l 64 854 b 89 857 69 864 82 863 b 185 786 117 842 147 819 b 168 904 172 832 168 878 b 185 925 168 914 172 925 l 235 925 b 250 904 247 925 250 914 b 235 786 250 874 247 835 b 331 860 271 818 307 846 b 356 856 339 864 350 865 l 382 811 b 372 789 386 801 381 792 b 263 742 344 772 310 756 b 372 696 308 729 349 710 b 382 672 381 692 388 682 "},"+":{"ha":475,"x_min":0,"x_max":0,"o":"m 294 417 l 294 271 l 182 271 l 182 417 l 43 417 l 43 531 l 182 531 l 182 676 l 294 676 l 294 531 l 433 531 l 433 417 "},",":{"ha":244,"x_min":0,"x_max":0,"o":"m 189 18 b 43 -132 189 -68 139 -132 l 43 -92 b 118 0 88 -92 118 -61 l 56 0 l 56 176 l 189 176 l 189 18 "},"-":{"ha":360,"x_min":0,"x_max":0,"o":"m 35 365 l 35 482 l 325 482 l 325 365 "},".":{"ha":244,"x_min":0,"x_max":0,"o":"m 56 0 l 56 176 l 189 176 l 189 0 "},"/":{"ha":361,"x_min":0,"x_max":0,"o":"m 100 -89 l 6 -89 l 263 1013 l 358 1013 "},":":{"ha":244,"x_min":0,"x_max":0,"o":"m 56 433 l 56 610 l 189 610 l 189 433 m 56 0 l 56 176 l 189 176 l 189 0 "},";":{"ha":244,"x_min":0,"x_max":0,"o":"m 56 433 l 56 610 l 189 610 l 189 433 m 189 18 b 43 -132 189 -68 139 -132 l 43 -92 b 118 0 88 -92 118 -61 l 56 0 l 56 176 l 189 176 l 189 18 "},"<":{"ha":644,"x_min":0,"x_max":0,"o":"m 71 444 l 71 482 l 542 786 l 542 646 l 265 463 l 542 279 l 542 139 "},"=":{"ha":467,"x_min":0,"x_max":0,"o":"m 38 529 l 38 647 l 429 647 l 429 529 m 38 299 l 38 418 l 429 418 l 429 299 "},">":{"ha":644,"x_min":0,"x_max":0,"o":"m 104 139 l 104 281 l 381 463 l 104 646 l 104 786 l 574 481 l 574 444 "},"?":{"ha":511,"x_min":0,"x_max":0,"o":"m 486 715 b 349 438 486 610 440 525 b 278 269 292 383 278 335 l 168 269 b 278 553 168 383 194 436 b 332 701 314 603 332 654 b 251 803 332 774 306 803 b 169 703 194 803 169 765 l 169 619 l 28 619 l 28 718 b 250 946 28 844 99 946 b 486 715 419 946 486 838 m 156 0 l 156 161 l 286 161 l 286 0 "},"@":{"ha":878,"x_min":0,"x_max":0,"o":"m 846 496 b 608 204 846 346 763 204 b 492 315 533 204 489 249 b 351 215 461 253 407 215 b 232 357 281 215 232 271 b 453 642 232 478 325 642 b 543 564 504 642 538 611 l 565 631 l 671 631 l 586 368 b 635 268 568 308 581 268 b 776 497 713 268 776 356 b 453 817 776 688 642 817 b 104 428 249 817 104 644 b 453 42 104 204 249 42 b 689 132 550 42 631 78 l 728 85 b 453 -21 658 19 564 -21 b 35 428 217 -21 35 167 b 453 879 35 682 217 879 b 846 496 728 879 846 663 m 524 510 b 472 574 524 544 510 574 b 335 363 389 574 335 438 b 392 289 335 314 356 289 b 489 393 436 289 471 333 l 524 510 "},"A":{"ha":574,"x_min":0,"x_max":0,"o":"m 393 0 l 363 182 l 199 182 l 165 0 l 4 0 l 190 925 l 383 925 l 568 0 m 285 675 l 222 318 l 340 318 "},"B":{"ha":603,"x_min":0,"x_max":0,"o":"m 557 196 b 351 0 557 67 478 0 l 60 0 l 60 925 l 349 925 b 553 729 475 925 553 857 l 553 629 b 443 474 553 550 522 490 b 557 317 526 451 557 394 l 557 196 m 388 717 b 326 783 388 758 369 783 l 233 783 l 233 529 l 319 529 b 388 601 364 529 388 553 m 390 329 b 322 403 390 378 367 403 l 233 403 l 233 142 l 331 142 b 390 208 374 142 390 165 "},"C":{"ha":604,"x_min":0,"x_max":0,"o":"m 567 221 b 317 -21 567 82 481 -21 b 50 233 151 -21 50 90 l 50 692 b 317 946 50 835 151 946 b 567 704 481 946 567 843 l 567 592 l 413 592 l 413 703 b 319 794 413 757 382 794 b 225 706 257 794 225 757 l 225 219 b 319 131 225 168 257 131 b 413 222 382 131 413 168 l 413 333 l 567 333 l 567 221 "},"D":{"ha":629,"x_min":0,"x_max":0,"o":"m 579 242 b 326 0 579 94 489 0 l 60 0 l 60 925 l 326 925 b 579 675 489 925 579 821 l 579 242 m 406 674 b 314 776 406 740 378 776 l 232 776 l 232 149 l 314 149 b 406 250 378 149 406 185 "},"E":{"ha":535,"x_min":0,"x_max":0,"o":"m 60 0 l 60 925 l 501 925 l 501 776 l 232 776 l 232 547 l 418 547 l 418 411 l 232 411 l 232 154 l 501 154 l 501 0 "},"F":{"ha":510,"x_min":0,"x_max":0,"o":"m 232 781 l 232 538 l 424 538 l 424 393 l 232 393 l 232 0 l 60 0 l 60 925 l 492 925 l 492 781 "},"G":{"ha":619,"x_min":0,"x_max":0,"o":"m 481 0 l 457 74 b 288 -21 426 13 363 -21 b 50 221 135 -21 50 88 l 50 704 b 314 944 50 831 147 944 b 569 704 481 944 569 835 l 569 608 l 404 608 l 404 711 b 315 794 404 756 376 794 b 225 708 254 794 225 754 l 225 215 b 317 129 225 169 257 129 b 408 215 378 129 408 169 l 408 344 l 318 344 l 318 469 l 575 469 l 575 0 "},"H":{"ha":657,"x_min":0,"x_max":0,"o":"m 425 0 l 425 379 l 232 379 l 232 0 l 60 0 l 60 925 l 232 925 l 232 533 l 425 533 l 425 925 l 599 925 l 599 0 "},"I":{"ha":293,"x_min":0,"x_max":0,"o":"m 60 0 l 60 925 l 232 925 l 232 0 "},"J":{"ha":578,"x_min":0,"x_max":0,"o":"m 522 228 b 274 -21 522 81 432 -21 b 26 219 119 -21 26 74 l 26 368 l 192 368 l 192 217 b 271 131 192 160 221 131 b 349 217 321 131 349 160 l 349 925 l 522 925 l 522 228 "},"K":{"ha":610,"x_min":0,"x_max":0,"o":"m 419 0 l 292 381 l 232 258 l 232 0 l 60 0 l 60 925 l 232 925 l 232 501 l 418 925 l 592 925 l 410 535 l 600 0 "},"L":{"ha":507,"x_min":0,"x_max":0,"o":"m 60 0 l 60 925 l 232 925 l 232 153 l 490 153 l 490 0 "},"M":{"ha":832,"x_min":0,"x_max":0,"o":"m 610 0 l 610 671 l 572 469 l 474 0 l 343 0 l 250 469 l 214 671 l 214 0 l 60 0 l 60 925 l 292 925 l 388 456 l 417 285 l 447 456 l 542 925 l 772 925 l 772 0 "},"N":{"ha":654,"x_min":0,"x_max":0,"o":"m 461 0 l 282 394 l 217 542 l 217 0 l 58 0 l 58 925 l 207 925 l 378 524 l 439 376 l 439 925 l 594 925 l 594 0 "},"O":{"ha":625,"x_min":0,"x_max":0,"o":"m 575 232 b 313 -21 575 85 475 -21 b 50 232 151 -21 50 85 l 50 693 b 313 944 50 839 151 944 b 575 693 475 944 575 839 l 575 232 m 401 704 b 313 794 401 758 369 794 b 225 704 257 794 225 758 l 225 221 b 313 131 225 167 257 131 b 401 221 369 131 401 167 "},"P":{"ha":586,"x_min":0,"x_max":0,"o":"m 554 561 b 344 354 554 429 475 354 l 232 354 l 232 0 l 60 0 l 60 925 l 344 925 b 554 717 475 925 554 850 l 554 561 m 388 714 b 326 783 388 760 369 783 l 232 783 l 232 488 l 326 488 b 388 557 369 488 388 511 "},"Q":{"ha":626,"x_min":0,"x_max":0,"o":"m 628 0 b 549 -21 610 -14 589 -21 b 449 21 510 -21 469 -1 b 304 -21 411 -4 365 -21 b 50 226 149 -21 50 86 l 50 699 b 313 944 50 838 150 944 b 575 699 475 944 575 838 l 575 225 b 553 129 575 189 568 156 b 628 110 569 115 586 110 l 628 0 m 400 711 b 313 794 400 756 369 794 b 225 711 257 794 225 756 l 225 214 b 313 131 225 169 257 131 b 363 143 332 131 350 135 l 325 178 l 400 251 "},"R":{"ha":610,"x_min":0,"x_max":0,"o":"m 488 -6 b 393 131 419 -6 393 50 l 393 304 b 322 383 393 347 371 383 l 232 383 l 232 0 l 60 0 l 60 925 l 344 925 b 556 724 471 925 556 853 l 556 593 b 451 450 556 524 524 472 b 558 310 524 431 558 369 l 558 140 b 592 46 558 97 571 68 l 592 -6 m 388 717 b 326 783 388 758 369 783 l 232 783 l 232 511 l 319 511 b 388 585 364 511 388 535 "},"S":{"ha":579,"x_min":0,"x_max":0,"o":"m 546 235 b 290 -21 546 86 443 -21 b 33 218 132 -21 33 74 l 33 282 l 192 282 l 192 228 b 286 122 192 160 224 122 b 378 215 347 122 378 158 b 239 407 378 289 331 339 b 42 696 144 475 42 567 b 294 944 42 829 128 944 b 538 707 440 944 538 844 l 538 647 l 381 647 l 381 703 b 293 801 381 760 351 801 b 210 718 243 801 210 769 b 358 525 210 640 256 600 b 546 235 468 443 546 360 "},"T":{"ha":542,"x_min":0,"x_max":0,"o":"m 358 772 l 358 0 l 185 0 l 185 772 l 14 772 l 14 925 l 528 925 l 528 772 "},"U":{"ha":632,"x_min":0,"x_max":0,"o":"m 574 214 b 318 -21 574 75 468 -21 b 57 214 168 -21 57 75 l 57 925 l 232 925 l 232 214 b 318 129 232 160 263 129 b 406 214 375 129 406 160 l 406 925 l 574 925 l 574 214 "},"V":{"ha":586,"x_min":0,"x_max":0,"o":"m 376 0 l 210 0 l 8 925 l 186 925 l 299 288 l 414 925 l 582 925 "},"W":{"ha":846,"x_min":0,"x_max":0,"o":"m 671 0 l 517 0 l 424 544 l 325 0 l 172 0 l 8 925 l 179 925 l 263 314 l 365 925 l 499 925 l 593 314 l 682 925 l 842 925 "},"X":{"ha":594,"x_min":0,"x_max":0,"o":"m 403 0 l 294 319 l 176 0 l 8 0 l 199 467 l 19 925 l 200 925 l 301 606 l 413 925 l 582 925 l 397 481 l 583 0 "},"Y":{"ha":578,"x_min":0,"x_max":0,"o":"m 374 378 l 374 0 l 201 0 l 201 378 l -3 925 l 178 925 l 297 549 l 411 925 l 583 925 "},"Z":{"ha":551,"x_min":0,"x_max":0,"o":"m 231 153 l 515 153 l 515 0 l 21 0 l 21 54 l 321 776 l 39 776 l 39 925 l 526 925 l 526 871 "},"[":{"ha":401,"x_min":0,"x_max":0,"o":"m 129 -208 l 129 1046 l 400 1046 l 400 942 l 243 942 l 243 -106 l 400 -106 l 400 -208 "},"\\":{"ha":361,"x_min":0,"x_max":0,"o":"m 265 -89 l 7 1013 l 101 1013 l 358 -89 "},"]":{"ha":401,"x_min":0,"x_max":0,"o":"m 1 -208 l 1 -106 l 161 -106 l 161 942 l 1 942 l 1 1046 l 272 1046 l 272 -208 "},"^":{"ha":385,"x_min":0,"x_max":0,"o":"m 368 754 b 307 743 349 747 325 743 b 190 851 250 743 206 782 b 71 743 174 782 129 743 b 18 754 54 743 36 747 l 18 793 b 135 925 67 793 113 835 l 250 925 b 368 793 274 835 318 793 l 368 754 "},"_":{"ha":468,"x_min":0,"x_max":0,"o":"m 0 -118 l 0 0 l 468 0 l 468 -118 "},"`":{"ha":253,"x_min":0,"x_max":0,"o":"m 129 751 l 18 942 l 158 942 l 211 751 "},"a":{"ha":499,"x_min":0,"x_max":0,"o":"m 438 -11 b 329 74 383 -11 343 14 b 181 -11 297 18 246 -11 b 29 160 93 -11 29 51 l 29 179 b 297 404 29 314 142 365 l 297 500 b 240 558 297 536 279 558 b 186 497 200 558 186 538 l 186 449 l 53 449 l 53 490 b 247 678 53 597 114 678 b 439 475 381 678 439 592 l 439 128 b 472 93 439 106 449 94 l 472 -11 m 297 313 b 168 199 210 293 168 260 l 168 161 b 224 99 168 125 188 99 b 297 168 264 99 297 128 "},"b":{"ha":518,"x_min":0,"x_max":0,"o":"m 471 172 b 317 -11 471 65 415 -11 b 176 76 258 -11 204 15 l 160 0 l 56 0 l 56 925 l 201 925 l 201 592 b 335 678 229 643 275 678 b 471 501 419 678 471 599 l 471 172 m 329 476 b 267 556 329 529 306 556 b 201 481 228 556 201 526 l 201 182 b 265 106 201 133 231 106 b 329 185 304 106 329 133 "},"c":{"ha":479,"x_min":0,"x_max":0,"o":"m 444 201 b 251 -11 444 68 374 -11 b 47 203 131 -11 47 69 l 47 463 b 251 678 47 594 131 678 b 444 464 374 678 444 596 l 444 421 l 321 421 l 321 486 b 256 560 321 531 299 560 b 189 483 213 560 189 531 l 189 182 b 256 107 189 135 213 107 b 321 179 299 107 321 136 l 321 246 l 444 246 l 444 201 "},"d":{"ha":518,"x_min":0,"x_max":0,"o":"m 350 0 l 342 76 b 204 -11 315 15 261 -11 b 47 172 104 -11 47 65 l 47 496 b 192 678 47 600 110 678 b 317 613 250 678 283 656 l 317 925 l 463 925 l 463 0 m 317 482 b 253 558 317 529 292 558 b 189 479 214 558 189 531 l 189 185 b 253 106 189 133 214 106 b 317 182 288 106 317 133 "},"e":{"ha":492,"x_min":0,"x_max":0,"o":"m 450 199 b 251 -11 450 72 374 -11 b 47 200 131 -11 47 74 l 47 467 b 251 678 47 592 131 678 b 450 467 374 678 450 592 l 450 319 l 189 319 l 189 176 b 253 107 189 135 211 107 b 318 176 299 107 318 135 l 318 242 l 450 242 l 450 199 m 315 489 b 253 560 315 532 293 560 b 189 489 213 560 189 532 l 189 389 l 315 389 "},"f":{"ha":349,"x_min":0,"x_max":0,"o":"m 246 540 l 246 0 l 99 0 l 99 540 l 25 540 l 25 660 l 99 660 l 99 711 b 293 925 99 843 158 925 l 339 925 l 339 810 l 315 810 b 242 732 258 810 242 782 l 242 660 l 335 660 l 335 540 "},"g":{"ha":506,"x_min":0,"x_max":0,"o":"m 513 683 b 443 599 513 628 481 599 b 399 610 429 599 415 601 b 456 485 435 575 456 533 l 456 436 b 253 246 456 325 375 246 b 207 250 242 246 217 247 b 158 204 176 250 158 228 b 272 160 158 176 183 160 b 486 -6 421 160 486 94 l 486 -37 b 260 -231 486 -151 403 -231 b 32 -69 129 -231 32 -167 l 32 -39 b 118 69 32 8 63 51 b 40 169 67 88 40 128 b 139 275 40 217 83 267 b 51 440 82 297 51 368 l 51 483 b 253 678 51 593 139 678 b 332 667 296 678 319 667 b 403 739 390 667 403 697 l 508 739 b 513 683 513 711 513 697 m 318 496 b 253 567 318 536 293 567 b 188 496 211 567 188 536 l 188 418 b 253 349 188 379 211 349 b 318 418 293 349 318 379 m 356 -14 b 261 50 356 25 332 50 b 165 -15 196 50 165 24 l 165 -50 b 261 -117 165 -89 197 -117 b 356 -49 328 -117 356 -87 "},"h":{"ha":526,"x_min":0,"x_max":0,"o":"m 329 0 l 329 492 b 271 558 329 532 306 558 b 201 467 229 558 201 501 l 201 0 l 56 0 l 56 925 l 201 925 l 201 576 b 340 678 229 640 282 678 b 475 511 425 678 475 611 l 475 0 "},"i":{"ha":257,"x_min":0,"x_max":0,"o":"m 57 756 l 57 896 l 199 896 l 199 756 m 56 0 l 56 667 l 201 667 l 201 0 "},"j":{"ha":256,"x_min":0,"x_max":0,"o":"m 57 756 l 57 896 l 199 896 l 199 756 m 201 -22 b 14 -222 201 -147 150 -222 l -29 -222 l -29 -111 l -14 -111 b 56 -49 43 -111 56 -90 l 56 667 l 201 667 l 201 -22 "},"k":{"ha":504,"x_min":0,"x_max":0,"o":"m 347 0 l 256 269 l 203 167 l 203 0 l 56 0 l 56 925 l 203 925 l 203 360 l 335 668 l 478 668 l 349 383 l 492 0 "},"l":{"ha":257,"x_min":0,"x_max":0,"o":"m 56 0 l 56 925 l 201 925 l 201 0 "},"m":{"ha":763,"x_min":0,"x_max":0,"o":"m 565 0 l 565 494 b 515 556 565 531 547 556 b 457 463 474 556 457 499 l 457 0 l 310 0 l 310 497 b 263 558 310 533 292 558 b 201 467 219 558 201 503 l 201 0 l 56 0 l 56 667 l 182 667 l 194 561 b 325 678 218 639 264 678 b 444 567 386 678 426 635 b 578 678 469 644 517 678 b 711 510 663 678 711 614 l 711 0 "},"n":{"ha":528,"x_min":0,"x_max":0,"o":"m 329 0 l 329 492 b 272 558 329 532 306 558 b 201 467 228 558 201 501 l 201 0 l 56 0 l 56 667 l 182 667 l 190 558 b 333 678 218 638 272 678 b 475 511 425 678 475 611 l 475 0 "},"o":{"ha":504,"x_min":0,"x_max":0,"o":"m 457 203 b 253 -11 457 69 374 -11 b 47 203 131 -11 47 69 l 47 463 b 253 678 47 594 131 678 b 457 463 374 678 457 594 l 457 203 m 315 490 b 253 560 315 531 290 560 b 190 490 213 560 190 531 l 190 175 b 253 107 190 135 213 107 b 315 175 290 107 315 135 "},"p":{"ha":518,"x_min":0,"x_max":0,"o":"m 471 161 b 331 -11 471 65 408 -11 b 201 54 272 -11 238 10 l 201 -218 l 56 -218 l 56 667 l 168 667 l 176 590 b 315 678 204 651 258 678 b 471 494 415 678 471 601 l 471 161 m 328 481 b 265 560 328 533 304 560 b 201 485 231 560 201 533 l 201 185 b 265 110 201 140 226 110 b 328 189 304 110 328 138 "},"q":{"ha":518,"x_min":0,"x_max":0,"o":"m 317 -219 l 317 72 b 182 -12 289 18 244 -12 b 47 160 107 -12 47 64 l 47 493 b 204 678 47 601 103 678 b 342 589 261 678 315 650 l 358 665 l 463 665 l 463 -219 m 317 483 b 253 558 317 532 288 558 b 189 481 214 558 189 532 l 189 188 b 253 108 189 136 214 108 b 317 185 292 108 317 139 "},"r":{"ha":376,"x_min":0,"x_max":0,"o":"m 357 521 b 201 438 242 538 201 497 l 201 0 l 56 0 l 56 667 l 179 667 l 189 553 b 357 672 215 653 275 689 l 357 521 "},"s":{"ha":465,"x_min":0,"x_max":0,"o":"m 435 178 b 238 -11 435 81 371 -11 b 35 183 107 -11 35 68 l 35 215 l 160 215 l 160 179 b 232 103 160 125 188 103 b 301 165 276 103 301 122 b 175 300 301 225 258 249 b 43 492 96 343 43 399 b 238 678 43 607 125 678 b 429 489 361 678 429 600 l 429 464 l 308 464 l 308 497 b 240 560 308 536 286 560 b 179 504 200 560 179 540 b 279 393 179 461 208 435 b 435 178 367 346 435 290 "},"t":{"ha":340,"x_min":0,"x_max":0,"o":"m 238 540 l 238 204 b 272 0 238 122 244 58 l 122 0 b 90 204 99 53 90 110 l 90 540 l 15 540 l 15 660 l 97 660 l 97 776 l 238 814 l 238 660 l 326 660 l 326 540 "},"u":{"ha":531,"x_min":0,"x_max":0,"o":"m 350 0 l 343 100 b 197 -11 315 26 258 -11 b 54 154 104 -11 54 56 l 54 667 l 201 667 l 201 174 b 258 107 201 133 225 107 b 328 199 301 107 328 163 l 328 667 l 474 667 l 474 0 "},"v":{"ha":463,"x_min":0,"x_max":0,"o":"m 294 0 l 167 0 l 8 667 l 151 667 l 214 336 l 235 208 l 256 336 l 315 667 l 453 667 "},"w":{"ha":682,"x_min":0,"x_max":0,"o":"m 533 0 l 415 0 l 361 271 l 342 397 l 321 271 l 268 0 l 149 0 l 8 667 l 151 667 l 199 339 l 215 206 l 233 339 l 288 667 l 407 667 l 456 339 l 475 206 l 492 339 l 544 667 l 675 667 "},"x":{"ha":475,"x_min":0,"x_max":0,"o":"m 317 0 l 238 218 l 157 0 l 11 0 l 157 331 l 11 667 l 158 667 l 239 447 l 318 667 l 464 667 l 318 343 l 464 0 "},"y":{"ha":463,"x_min":0,"x_max":0,"o":"m 293 -21 b 92 -222 263 -147 229 -222 l 50 -222 l 50 -111 l 81 -111 b 156 -46 133 -111 144 -93 l 167 11 l 11 667 l 153 667 l 215 338 l 236 208 l 256 338 l 317 667 l 454 667 "},"z":{"ha":429,"x_min":0,"x_max":0,"o":"m 186 131 l 396 131 l 396 0 l 25 0 l 25 71 l 246 542 l 39 542 l 39 667 l 403 667 l 403 596 "},"{":{"ha":431,"x_min":0,"x_max":0,"o":"m 314 -208 b 108 -14 174 -208 108 -119 b 218 310 108 129 218 238 b 126 379 218 357 196 379 l 81 379 l 81 458 l 126 458 b 218 526 196 458 218 479 b 108 850 218 600 108 708 b 314 1046 108 957 174 1046 l 368 1046 l 368 946 l 329 946 b 244 851 269 946 244 908 b 325 567 244 744 325 646 b 197 424 325 492 292 444 b 325 282 292 404 325 358 b 244 -15 325 204 244 92 b 329 -110 244 -71 269 -110 l 368 -110 l 368 -208 "},"|":{"ha":211,"x_min":0,"x_max":0,"o":"m 60 -89 l 60 1013 l 151 1013 l 151 -89 "},"}":{"ha":431,"x_min":0,"x_max":0,"o":"m 306 379 b 214 310 236 379 214 357 b 324 -14 214 238 324 129 b 118 -208 324 -119 258 -208 l 64 -208 l 64 -110 l 103 -110 b 188 -15 163 -110 188 -71 b 107 282 188 92 107 204 b 233 424 107 358 140 404 b 107 567 140 444 107 492 b 188 851 107 646 188 744 b 103 946 188 908 163 946 l 64 946 l 64 1046 l 118 1046 b 324 850 258 1046 324 957 b 214 526 324 708 214 600 b 306 458 214 479 236 458 l 350 458 l 350 379 "},"~":{"ha":394,"x_min":0,"x_max":0,"o":"m 379 488 b 276 376 379 421 346 376 b 121 443 213 376 157 443 b 93 413 101 443 93 431 l 93 379 l 36 379 b 18 436 24 396 18 414 b 118 546 18 503 50 546 b 275 481 183 546 240 481 b 304 513 296 481 304 493 l 304 546 l 361 546 b 379 488 372 528 379 510 "},"":{"ha":225,"x_min":0,"x_max":0,"o":"m 181 18 b 33 -132 181 -68 129 -132 l 33 -92 b 107 0 78 -92 107 -61 l 44 0 l 44 176 l 181 176 l 181 18 "},"":{"ha":438,"x_min":0,"x_max":0,"o":"m 401 544 l 401 431 l 297 431 l 297 192 b 101 -24 297 58 240 -24 l 58 -24 l 58 93 l 75 93 b 146 160 132 93 146 114 l 146 431 l 44 431 l 44 544 l 146 544 l 146 711 b 342 925 146 844 204 925 l 385 925 l 385 808 l 368 808 b 297 742 311 808 297 786 l 297 544 "},"":{"ha":404,"x_min":0,"x_max":0,"o":"m 358 18 b 213 -132 358 -68 308 -132 l 213 -92 b 288 0 257 -92 288 -61 l 225 0 l 225 176 l 358 176 l 358 18 m 181 18 b 33 -132 181 -68 129 -132 l 33 -92 b 107 0 78 -92 107 -61 l 44 0 l 44 176 l 181 176 l 181 18 "},"":{"ha":714,"x_min":0,"x_max":0,"o":"m 56 0 l 56 176 l 189 176 l 189 0 m 289 0 l 289 176 l 425 176 l 425 0 m 524 0 l 524 176 l 658 176 l 658 0 "},"":{"ha":518,"x_min":0,"x_max":0,"o":"m 501 585 b 482 568 501 572 490 568 b 293 585 454 568 339 572 b 310 344 306 539 310 371 b 296 -81 310 161 306 -10 b 281 -100 296 -89 293 -100 l 239 -100 b 221 -81 226 -100 221 -89 b 210 344 214 -10 210 161 b 225 585 210 371 214 539 b 38 568 179 572 64 568 b 18 585 29 568 18 572 l 18 651 b 38 667 18 663 29 667 b 225 651 68 667 176 664 b 210 906 213 697 210 878 b 225 925 210 914 214 925 l 293 925 b 310 906 306 925 310 914 b 294 651 310 878 306 697 b 482 667 342 664 450 667 b 501 651 490 667 501 663 l 501 585 "},"":{"ha":518,"x_min":0,"x_max":0,"o":"m 501 164 b 482 149 501 151 490 149 b 294 164 450 149 342 151 b 310 -90 306 118 310 -62 b 293 -110 310 -99 306 -110 l 225 -110 b 210 -90 214 -110 210 -99 b 225 164 210 -62 213 118 b 38 149 176 151 68 149 b 18 164 29 149 18 151 l 18 231 b 38 247 18 243 29 247 b 225 231 64 247 179 242 b 210 403 214 276 210 376 b 225 575 210 431 214 529 b 38 558 179 563 64 558 b 18 575 29 558 18 563 l 18 642 b 38 657 18 653 29 657 b 225 642 68 657 176 654 b 210 896 213 688 210 868 b 225 915 210 904 214 915 l 293 915 b 310 896 306 915 310 904 b 294 642 310 868 306 688 b 482 657 342 654 450 657 b 501 642 490 657 501 653 l 501 575 b 482 558 501 563 490 558 b 293 575 454 558 339 563 b 310 403 306 529 310 431 b 293 231 310 376 306 276 b 482 247 339 242 454 247 b 501 231 490 247 501 243 l 501 164 "},"":{"ha":385,"x_min":0,"x_max":0,"o":"m 369 765 b 307 756 349 758 325 756 b 190 863 250 756 207 793 b 72 756 174 793 129 756 b 18 765 54 756 38 758 l 18 804 b 135 936 68 804 113 847 l 250 936 b 369 804 274 847 318 804 l 369 765 "},"":{"ha":1129,"x_min":0,"x_max":0,"o":"m 1097 122 b 957 -22 1097 32 1038 -22 b 818 122 878 -22 818 32 l 818 314 b 957 457 818 403 878 457 b 1097 314 1038 457 1097 403 l 1097 122 m 1004 335 b 957 379 1004 361 985 379 b 911 335 929 379 911 361 l 911 101 b 957 56 911 75 929 56 b 1004 101 985 56 1004 75 m 756 122 b 615 -22 756 32 696 -22 b 476 122 536 -22 476 32 l 476 314 b 615 457 476 403 536 457 b 756 314 696 457 756 403 l 756 122 m 664 335 b 615 379 664 361 643 379 b 569 335 589 379 569 361 l 569 101 b 615 56 569 75 589 56 b 664 101 643 56 664 75 m 139 -31 l 81 14 l 658 954 l 717 910 m 321 610 b 181 467 321 521 261 467 b 42 610 101 467 42 521 l 42 801 b 181 944 42 890 101 944 b 321 801 261 944 321 890 l 321 610 m 228 822 b 181 868 228 849 208 868 b 135 822 154 868 135 849 l 135 590 b 181 544 135 564 154 544 b 228 590 208 544 228 564 "},"":{"ha":579,"x_min":0,"x_max":0,"o":""},"":{"ha":329,"x_min":0,"x_max":0,"o":"m 219 0 b 32 221 197 101 128 192 l 32 317 b 219 538 128 346 197 438 l 288 538 b 174 268 288 431 244 321 b 288 0 244 217 288 108 "},"":{"ha":875,"x_min":0,"x_max":0,"o":"m 313 0 b 53 250 147 0 53 96 l 53 667 b 313 925 53 821 147 925 l 842 925 l 842 776 l 572 776 l 572 549 l 758 549 l 758 411 l 572 411 l 572 154 l 842 154 l 842 0 m 399 778 l 324 778 b 225 668 256 778 225 742 l 225 257 b 324 147 225 183 256 147 l 399 147 "},"":{"ha":551,"x_min":0,"x_max":0,"o":""},"":{"ha":225,"x_min":0,"x_max":0,"o":"m 44 776 b 192 928 44 863 96 928 l 192 886 b 118 794 147 886 118 856 l 181 794 l 181 618 l 44 618 l 44 776 "},"":{"ha":225,"x_min":0,"x_max":0,"o":"m 181 767 b 33 617 181 681 129 617 l 33 657 b 107 749 78 657 107 688 l 44 749 l 44 925 l 181 925 l 181 767 "},"":{"ha":404,"x_min":0,"x_max":0,"o":"m 44 776 b 192 928 44 863 96 928 l 192 886 b 118 794 147 886 118 856 l 181 794 l 181 618 l 44 618 l 44 776 m 225 776 b 371 928 225 863 275 928 l 371 886 b 297 794 326 886 297 856 l 358 794 l 358 618 l 225 618 l 225 776 "},"":{"ha":404,"x_min":0,"x_max":0,"o":"m 358 767 b 213 617 358 681 308 617 l 213 657 b 288 749 257 657 288 688 l 225 749 l 225 925 l 358 925 l 358 767 m 181 767 b 33 617 181 681 129 617 l 33 657 b 107 749 78 657 107 688 l 44 749 l 44 925 l 181 925 l 181 767 "},"":{"ha":394,"x_min":0,"x_max":0,"o":"m 358 463 b 197 299 358 360 289 299 b 35 463 104 299 35 360 b 197 626 35 565 104 626 b 358 463 289 626 358 565 "},"":{"ha":660,"x_min":0,"x_max":0,"o":"m 88 365 l 88 482 l 574 482 l 574 365 "},"":{"ha":990,"x_min":0,"x_max":0,"o":"m 88 365 l 88 482 l 904 482 l 904 365 "},"":{"ha":394,"x_min":0,"x_max":0,"o":"m 379 879 b 276 769 379 814 346 769 b 121 836 213 769 157 836 b 93 804 101 836 93 824 l 93 772 l 36 772 b 18 828 24 789 18 806 b 118 938 18 894 50 938 b 275 872 183 938 240 872 b 304 904 296 872 304 885 l 304 938 l 361 938 b 379 879 372 919 379 901 "},"":{"ha":807,"x_min":0,"x_max":0,"o":"m 682 558 l 682 856 l 656 753 l 594 558 l 529 558 l 469 753 l 443 856 l 443 558 l 378 558 l 378 925 l 476 925 l 539 721 l 563 625 l 589 721 l 647 925 l 749 925 l 749 558 m 206 864 l 206 558 l 133 558 l 133 864 l 28 864 l 28 925 l 311 925 l 311 864 "},"":{"ha":465,"x_min":0,"x_max":0,"o":""},"":{"ha":329,"x_min":0,"x_max":0,"o":"m 296 221 b 110 0 201 192 132 101 l 42 0 b 156 268 42 108 85 217 b 42 538 85 321 42 431 l 110 538 b 296 317 132 438 201 346 l 296 221 "},"":{"ha":771,"x_min":0,"x_max":0,"o":"m 731 199 b 547 -11 731 72 660 -11 b 392 67 481 -11 424 18 b 236 -11 361 18 303 -11 b 47 203 125 -11 47 69 l 47 463 b 236 678 47 594 125 678 b 393 599 303 678 361 649 b 547 678 422 647 482 678 b 731 467 660 678 731 592 l 731 319 l 469 319 l 469 181 b 533 110 469 139 490 110 b 599 181 578 110 599 139 l 599 242 l 731 242 l 731 199 m 596 486 b 533 557 596 528 572 557 b 469 486 492 557 469 528 l 469 389 l 596 389 m 315 486 b 251 557 315 528 290 557 b 189 486 214 557 189 528 l 189 179 b 251 110 189 138 214 110 b 315 179 290 110 315 138 "},"":{"ha":429,"x_min":0,"x_max":0,"o":""},"":{"ha":578,"x_min":0,"x_max":0,"o":"m 374 378 l 374 0 l 201 0 l 201 378 l -3 925 l 178 925 l 297 549 l 411 925 l 583 925 m 326 1004 l 326 1139 l 442 1139 l 442 1004 m 143 1004 l 143 1139 l 257 1139 l 257 1004 "}," ":{"ha":107,"x_min":0,"x_max":0,"o":""},"¡":{"ha":268,"x_min":0,"x_max":0,"o":"m 68 506 l 68 667 l 199 667 l 199 506 m 58 -258 l 58 143 l 110 408 l 157 408 l 210 143 l 210 -258 "},"¢":{"ha":504,"x_min":0,"x_max":0,"o":"m 211 925 l 318 925 l 318 800 b 456 599 403 778 456 704 l 456 550 l 329 550 l 329 619 b 265 689 329 660 307 689 b 203 619 226 689 203 660 l 203 307 b 265 238 203 264 226 238 b 329 307 307 238 329 264 l 329 375 l 456 375 l 456 326 b 318 125 456 219 403 147 l 318 0 l 211 0 l 211 124 b 58 326 121 143 58 217 l 58 599 b 211 803 58 707 121 782 "},"£":{"ha":671,"x_min":0,"x_max":0,"o":"m 639 182 b 458 -21 639 58 583 -21 b 269 51 386 -21 314 7 b 131 -21 236 6 189 -21 b 0 100 50 -21 0 33 b 150 231 0 174 53 231 b 243 207 185 231 217 221 b 271 317 261 233 271 279 b 249 401 271 342 263 379 l 76 401 l 76 515 l 199 515 b 153 699 176 561 153 629 b 393 946 153 826 232 946 b 613 724 546 946 613 831 l 613 647 l 471 647 l 471 706 b 393 797 471 761 444 797 b 317 706 342 797 317 764 b 368 515 317 636 340 574 l 549 515 l 549 401 l 403 401 b 410 339 407 381 410 357 b 336 153 410 269 379 206 b 435 115 367 132 403 115 b 506 194 488 115 506 147 l 506 279 l 639 279 l 639 182 m 200 114 b 139 142 178 135 157 142 b 100 108 114 142 100 128 b 140 76 100 93 114 76 b 200 114 163 76 188 90 "},"¤":{"ha":593,"x_min":0,"x_max":0,"o":"m 471 521 l 471 404 l 214 404 l 214 221 b 308 131 214 168 246 131 b 403 224 371 131 403 167 l 403 303 l 556 303 l 556 222 b 306 -21 556 81 469 -21 b 50 233 140 -21 50 89 l 50 692 b 306 946 50 836 140 946 b 556 703 469 946 556 844 l 556 622 l 403 622 l 403 701 b 308 794 403 758 371 794 b 214 704 246 794 214 757 l 214 521 "},"¥":{"ha":621,"x_min":0,"x_max":0,"o":"m 388 297 l 557 297 l 557 181 l 388 181 l 388 0 l 226 0 l 226 181 l 60 181 l 60 297 l 226 297 l 226 385 l 60 385 l 60 500 l 188 500 l 35 925 l 203 925 l 315 567 l 422 925 l 586 925 l 428 500 l 557 500 l 557 385 l 388 385 "},"§":{"ha":607,"x_min":0,"x_max":0,"o":"m 568 350 b 476 168 568 269 535 208 b 560 -6 529 118 560 71 b 310 -225 560 -119 481 -225 b 40 -6 146 -225 40 -140 l 40 33 l 193 33 l 193 -12 b 300 -97 193 -61 232 -97 b 403 -14 371 -97 403 -67 b 53 374 403 114 53 160 b 146 549 53 447 93 510 b 63 719 97 594 63 646 b 306 946 63 840 139 946 b 553 724 471 946 553 843 l 553 692 l 401 692 l 401 733 b 311 811 401 772 383 811 b 225 736 249 811 225 779 b 568 350 225 613 568 560 m 428 313 b 240 490 428 364 382 417 b 192 410 210 476 192 443 b 381 238 192 360 228 318 b 428 313 410 250 428 281 "},"¨":{"ha":338,"x_min":0,"x_max":0,"o":"m 203 778 l 203 913 l 318 913 l 318 778 m 19 778 l 19 913 l 133 913 l 133 778 "},"©":{"ha":944,"x_min":0,"x_max":0,"o":"m 914 453 b 472 10 914 208 725 10 b 31 453 219 10 31 208 b 472 897 31 697 219 897 b 914 453 725 897 914 697 m 844 453 b 472 833 844 664 693 833 b 100 453 253 833 100 664 b 472 72 100 243 253 72 b 844 453 693 72 844 243 m 622 372 b 479 244 622 297 567 244 b 329 375 390 244 329 300 l 329 531 b 479 661 329 606 390 661 b 622 533 567 661 622 610 l 622 507 l 554 507 l 554 532 b 481 601 554 571 529 601 b 407 529 431 601 407 569 l 407 376 b 481 304 407 338 431 304 b 554 374 529 304 554 335 l 554 400 l 622 400 l 622 372 "},"ª":{"ha":432,"x_min":0,"x_max":0,"o":"m 369 433 b 282 497 325 433 293 453 b 160 433 256 456 214 433 b 38 563 89 433 38 481 l 38 575 b 256 740 38 676 128 714 l 256 811 b 210 856 256 838 240 856 b 165 808 176 856 165 839 l 165 774 l 58 774 l 58 803 b 215 944 58 883 107 944 b 371 790 324 944 371 881 l 371 539 b 410 514 371 522 378 514 l 410 433 m 256 674 b 150 589 183 660 150 635 l 150 564 b 197 517 150 536 165 517 b 256 569 229 517 256 538 "},"«":{"ha":586,"x_min":0,"x_max":0,"o":"m 219 0 b 32 221 197 101 128 192 l 32 317 b 219 538 128 346 197 438 l 288 538 b 174 268 288 431 244 321 b 288 0 244 217 288 108 m 476 0 b 290 221 454 101 385 192 l 290 317 b 476 538 385 346 454 438 l 544 538 b 431 268 544 431 501 321 b 544 0 501 217 544 108 "},"¬":{"ha":553,"x_min":0,"x_max":0,"o":"m 403 254 l 275 383 l 149 254 l 65 336 l 193 464 l 65 593 l 150 675 l 278 547 l 404 675 l 486 593 l 358 467 l 486 338 "},"®":{"ha":944,"x_min":0,"x_max":0,"o":"m 914 453 b 472 10 914 208 725 10 b 31 453 219 10 31 208 b 472 897 31 697 219 897 b 914 453 725 897 914 697 m 844 453 b 472 833 844 664 693 833 b 100 453 253 833 100 664 b 472 72 100 243 253 72 b 844 453 693 72 844 243 m 625 254 b 547 319 567 254 547 269 l 547 365 b 494 424 547 400 532 424 l 418 424 l 418 258 l 342 258 l 342 653 l 503 653 b 621 543 590 653 621 610 l 621 536 b 554 450 621 488 604 460 b 624 367 603 446 624 406 l 624 326 b 646 308 624 314 631 308 l 646 254 m 544 544 b 496 593 544 571 533 593 l 418 593 l 418 476 l 489 476 b 544 532 525 476 544 494 "},"¯":{"ha":351,"x_min":0,"x_max":0,"o":"m 17 794 l 17 885 l 335 885 l 335 794 "},"°":{"ha":385,"x_min":0,"x_max":0,"o":"m 363 779 b 193 614 363 692 294 614 b 22 779 92 614 22 692 b 193 946 22 867 92 946 b 363 779 294 946 363 867 m 276 779 b 193 871 276 832 246 871 b 110 779 140 871 110 832 b 193 688 110 725 140 688 b 276 779 246 688 276 725 "},"±":{"ha":722,"x_min":0,"x_max":0,"o":"m 33 0 l 33 683 l 689 683 l 689 0 m 618 615 l 104 615 l 104 68 l 618 68 "},"´":{"ha":253,"x_min":0,"x_max":0,"o":"m 140 751 l 58 751 l 110 942 l 251 942 "},"¶":{"ha":758,"x_min":0,"x_max":0,"o":"m 594 -217 l 594 801 l 497 801 l 497 -217 l 397 -217 l 397 265 l 343 265 b 49 583 178 265 49 392 l 49 606 b 343 925 49 799 178 925 l 693 925 l 693 -217 m 397 801 l 371 801 b 278 679 313 801 278 751 l 278 499 b 371 386 278 428 313 386 l 397 386 "},"·":{"ha":225,"x_min":0,"x_max":0,"o":"m 44 372 l 44 550 l 181 550 l 181 372 "},"¸":{"ha":260,"x_min":0,"x_max":0,"o":"m 267 -204 b 142 -321 267 -269 213 -321 b 90 -307 118 -321 97 -312 l 90 -262 l 115 -262 b 168 -217 150 -262 168 -247 l 168 -179 b 115 -132 168 -147 150 -132 b 58 -161 96 -132 78 -142 l 15 -129 l 129 29 l 172 -3 l 104 -96 b 154 -86 117 -87 138 -86 b 267 -204 225 -86 267 -135 "},"º":{"ha":397,"x_min":0,"x_max":0,"o":"m 365 594 b 199 433 365 494 294 433 b 33 594 104 433 33 494 l 33 783 b 199 944 33 883 104 944 b 365 783 294 944 365 883 l 365 594 m 250 806 b 199 857 250 835 229 857 b 147 806 168 857 147 835 l 147 572 b 199 521 147 542 168 521 b 250 572 229 521 250 542 "},"»":{"ha":585,"x_min":0,"x_max":0,"o":"m 294 221 b 108 0 200 192 131 101 l 40 0 b 154 268 40 108 83 217 b 40 538 83 321 40 431 l 108 538 b 294 317 131 438 200 346 l 294 221 m 553 221 b 365 0 457 192 388 101 l 297 0 b 411 268 297 108 340 217 b 297 538 340 321 297 431 l 365 538 b 553 317 388 438 457 346 l 553 221 "},"¿":{"ha":469,"x_min":0,"x_max":0,"o":"m -8 -49 b 128 229 -8 57 36 142 b 200 396 186 283 200 332 l 310 396 b 199 114 310 283 283 231 b 146 -36 164 64 146 13 b 226 -136 146 -108 172 -136 b 307 -36 283 -136 307 -99 l 307 47 l 449 47 l 449 -51 b 228 -279 449 -178 379 -279 b -8 -49 57 -279 -8 -171 m 322 667 l 322 506 l 192 506 l 192 667 "},"À":{"ha":574,"x_min":0,"x_max":0,"o":"m 393 0 l 363 182 l 199 182 l 165 0 l 4 0 l 190 925 l 383 925 l 568 0 m 285 675 l 222 318 l 340 318 m 242 978 l 131 1168 l 271 1168 l 324 978 "},"Á":{"ha":574,"x_min":0,"x_max":0,"o":"m 393 0 l 363 182 l 199 182 l 165 0 l 4 0 l 190 925 l 383 925 l 568 0 m 285 675 l 222 318 l 340 318 m 324 978 l 242 978 l 293 1168 l 435 1168 "},"Â":{"ha":574,"x_min":0,"x_max":0,"o":"m 393 0 l 363 182 l 199 182 l 165 0 l 4 0 l 190 925 l 383 925 l 568 0 m 285 675 l 222 318 l 340 318 m 465 992 b 403 982 444 985 421 982 b 286 1089 346 982 303 1019 b 168 982 269 1019 225 982 b 114 992 150 982 133 985 l 114 1031 b 231 1163 164 1031 208 1074 l 346 1163 b 465 1031 369 1074 414 1031 l 465 992 "},"Ã":{"ha":574,"x_min":0,"x_max":0,"o":"m 393 0 l 363 182 l 199 182 l 165 0 l 4 0 l 190 925 l 383 925 l 568 0 m 285 675 l 222 318 l 340 318 m 461 1106 b 358 996 461 1040 428 996 b 203 1063 294 996 239 1063 b 175 1031 183 1063 175 1050 l 175 999 l 118 999 b 100 1054 106 1015 100 1032 b 200 1164 100 1121 132 1164 b 357 1099 265 1164 322 1099 b 386 1131 378 1099 386 1111 l 386 1164 l 443 1164 b 461 1106 454 1146 461 1128 "},"Ä":{"ha":574,"x_min":0,"x_max":0,"o":"m 393 0 l 363 182 l 199 182 l 165 0 l 4 0 l 190 925 l 383 925 l 568 0 m 285 675 l 222 318 l 340 318 m 317 1004 l 317 1139 l 432 1139 l 432 1004 m 133 1004 l 133 1139 l 247 1139 l 247 1004 "},"Å":{"ha":574,"x_min":0,"x_max":0,"o":"m 285 675 l 222 318 l 340 318 m 342 1008 b 286 1072 342 1047 321 1072 b 231 1008 251 1072 231 1047 b 286 946 231 971 251 946 b 342 1008 321 946 342 971 m 217 925 b 174 1008 190 943 174 975 b 286 1122 174 1069 219 1122 b 399 1008 351 1122 399 1069 b 356 925 399 975 382 943 l 383 925 l 568 0 l 393 0 l 363 182 l 199 182 l 165 0 l 4 0 l 190 925 l 217 925 "},"Æ":{"ha":858,"x_min":0,"x_max":0,"o":"m 382 0 l 382 182 l 229 182 l 172 0 l 3 0 l 304 925 l 825 925 l 825 776 l 556 776 l 556 549 l 742 549 l 742 411 l 556 411 l 556 154 l 825 154 l 825 0 m 382 696 l 272 318 l 382 318 "},"Ç":{"ha":604,"x_min":0,"x_max":0,"o":"m 261 -15 b 50 233 128 7 50 108 l 50 692 b 317 946 50 835 151 946 b 567 704 481 946 567 843 l 567 592 l 413 592 l 413 703 b 319 794 413 757 382 794 b 225 706 257 794 225 757 l 225 219 b 319 131 225 168 257 131 b 413 222 382 131 413 168 l 413 333 l 567 333 l 567 221 b 324 -21 567 85 482 -18 l 269 -96 b 318 -86 281 -87 303 -86 b 431 -204 389 -86 431 -135 b 306 -321 431 -269 378 -321 b 254 -307 282 -321 261 -312 l 254 -262 l 279 -262 b 332 -217 314 -262 332 -247 l 332 -179 b 279 -132 332 -147 314 -132 b 222 -161 260 -132 240 -142 l 179 -129 l 261 -15 "},"È":{"ha":535,"x_min":0,"x_max":0,"o":"m 60 0 l 60 925 l 501 925 l 501 776 l 232 776 l 232 547 l 418 547 l 418 411 l 232 411 l 232 154 l 501 154 l 501 0 m 240 978 l 129 1168 l 269 1168 l 322 978 "},"É":{"ha":535,"x_min":0,"x_max":0,"o":"m 60 0 l 60 925 l 501 925 l 501 776 l 232 776 l 232 547 l 418 547 l 418 411 l 232 411 l 232 154 l 501 154 l 501 0 m 303 978 l 221 978 l 272 1168 l 414 1168 "},"Ê":{"ha":535,"x_min":0,"x_max":0,"o":"m 60 0 l 60 925 l 501 925 l 501 776 l 232 776 l 232 547 l 418 547 l 418 411 l 232 411 l 232 154 l 501 154 l 501 0 m 451 992 b 389 982 431 985 407 982 b 272 1089 332 982 289 1019 b 154 982 256 1019 211 982 b 100 992 136 982 119 985 l 100 1031 b 217 1163 150 1031 194 1074 l 332 1163 b 451 1031 356 1074 400 1031 l 451 992 "},"Ë":{"ha":535,"x_min":0,"x_max":0,"o":"m 60 0 l 60 925 l 501 925 l 501 776 l 232 776 l 232 547 l 418 547 l 418 411 l 232 411 l 232 154 l 501 154 l 501 0 m 311 1004 l 311 1139 l 426 1139 l 426 1004 m 128 1004 l 128 1139 l 242 1139 l 242 1004 "},"Ì":{"ha":293,"x_min":0,"x_max":0,"o":"m 60 0 l 60 925 l 232 925 l 232 0 m 104 978 l -7 1168 l 133 1168 l 186 978 "},"Í":{"ha":293,"x_min":0,"x_max":0,"o":"m 60 0 l 60 925 l 232 925 l 232 0 m 179 978 l 97 978 l 149 1168 l 290 1168 "},"Î":{"ha":293,"x_min":0,"x_max":0,"o":"m 60 0 l 60 925 l 232 925 l 232 0 m 325 992 b 263 982 304 985 281 982 b 146 1089 206 982 163 1019 b 28 982 129 1019 85 982 b -26 992 10 982 -7 985 l -26 1031 b 90 1163 24 1031 68 1074 l 206 1163 b 325 1031 229 1074 274 1031 l 325 992 "},"Ï":{"ha":293,"x_min":0,"x_max":0,"o":"m 60 0 l 60 925 l 232 925 l 232 0 m 179 1004 l 179 1139 l 294 1139 l 294 1004 m -4 1004 l -4 1139 l 110 1139 l 110 1004 "},"Ð":{"ha":668,"x_min":0,"x_max":0,"o":"m 358 521 l 358 404 l 272 404 l 272 147 l 353 147 b 446 250 418 147 446 185 l 446 674 b 353 776 446 740 418 776 l 272 776 l 272 521 m -1 404 l -1 521 l 100 521 l 100 925 l 365 925 b 618 675 528 925 618 821 l 618 242 b 365 0 618 94 528 0 l 100 0 l 100 404 "},"Ñ":{"ha":654,"x_min":0,"x_max":0,"o":"m 461 0 l 282 394 l 217 542 l 217 0 l 58 0 l 58 925 l 207 925 l 378 524 l 439 376 l 439 925 l 594 925 l 594 0 m 504 1106 b 401 996 504 1040 471 996 b 246 1063 338 996 282 1063 b 218 1031 226 1063 218 1050 l 218 999 l 161 999 b 143 1054 149 1015 143 1032 b 243 1164 143 1121 175 1164 b 400 1099 308 1164 365 1099 b 429 1131 421 1099 429 1111 l 429 1164 l 486 1164 b 504 1106 497 1146 504 1128 "},"Ò":{"ha":625,"x_min":0,"x_max":0,"o":"m 575 232 b 313 -21 575 85 475 -21 b 50 232 151 -21 50 85 l 50 693 b 313 944 50 839 151 944 b 575 693 475 944 575 839 l 575 232 m 401 704 b 313 794 401 758 369 794 b 225 704 257 794 225 758 l 225 221 b 313 131 225 167 257 131 b 401 221 369 131 401 167 m 272 978 l 161 1168 l 301 1168 l 354 978 "},"Ó":{"ha":625,"x_min":0,"x_max":0,"o":"m 575 232 b 313 -21 575 85 475 -21 b 50 232 151 -21 50 85 l 50 693 b 313 944 50 839 151 944 b 575 693 475 944 575 839 l 575 232 m 401 704 b 313 794 401 758 369 794 b 225 704 257 794 225 758 l 225 221 b 313 131 225 167 257 131 b 401 221 369 131 401 167 m 350 978 l 268 978 l 319 1168 l 461 1168 "},"Ô":{"ha":625,"x_min":0,"x_max":0,"o":"m 575 232 b 313 -21 575 85 475 -21 b 50 232 151 -21 50 85 l 50 693 b 313 944 50 839 151 944 b 575 693 475 944 575 839 l 575 232 m 401 704 b 313 794 401 758 369 794 b 225 704 257 794 225 758 l 225 221 b 313 131 225 167 257 131 b 401 221 369 131 401 167 m 492 992 b 429 982 471 985 447 982 b 313 1089 372 982 329 1019 b 194 982 296 1019 251 982 b 140 992 176 982 160 985 l 140 1031 b 257 1163 190 1031 235 1074 l 372 1163 b 492 1031 396 1074 440 1031 l 492 992 "},"Õ":{"ha":625,"x_min":0,"x_max":0,"o":"m 575 232 b 313 -21 575 85 475 -21 b 50 232 151 -21 50 85 l 50 693 b 313 944 50 839 151 944 b 575 693 475 944 575 839 l 575 232 m 401 704 b 313 794 401 758 369 794 b 225 704 257 794 225 758 l 225 221 b 313 131 225 167 257 131 b 401 221 369 131 401 167 m 488 1106 b 385 996 488 1040 454 996 b 229 1063 321 996 265 1063 b 201 1031 210 1063 201 1050 l 201 999 l 144 999 b 126 1054 132 1015 126 1032 b 226 1164 126 1121 158 1164 b 383 1099 292 1164 349 1099 b 413 1131 404 1099 413 1111 l 413 1164 l 469 1164 b 488 1106 481 1146 488 1128 "},"Ö":{"ha":625,"x_min":0,"x_max":0,"o":"m 575 232 b 313 -21 575 85 475 -21 b 50 232 151 -21 50 85 l 50 693 b 313 944 50 839 151 944 b 575 693 475 944 575 839 l 575 232 m 401 704 b 313 794 401 758 369 794 b 225 704 257 794 225 758 l 225 221 b 313 131 225 167 257 131 b 401 221 369 131 401 167 m 349 1004 l 349 1139 l 464 1139 l 464 1004 m 165 1004 l 165 1139 l 279 1139 l 279 1004 "},"×":{"ha":553,"x_min":0,"x_max":0,"o":"m 403 254 l 275 383 l 149 254 l 65 336 l 193 464 l 65 593 l 150 675 l 278 547 l 404 675 l 486 593 l 358 467 l 486 338 "},"Ø":{"ha":636,"x_min":0,"x_max":0,"o":"m 544 819 b 575 693 565 783 575 740 l 575 232 b 313 -21 575 85 475 -21 b 135 38 240 -21 179 0 l 93 -43 l 24 0 l 79 107 b 50 232 60 143 50 185 l 50 693 b 313 944 50 839 151 944 b 489 888 385 944 444 924 l 531 968 l 600 925 m 400 719 b 313 794 394 765 364 794 b 225 704 257 794 225 758 l 225 385 l 400 719 m 401 546 l 225 210 b 313 131 229 163 261 131 b 401 221 369 131 401 167 "},"Ù":{"ha":632,"x_min":0,"x_max":0,"o":"m 574 214 b 318 -21 574 75 468 -21 b 57 214 168 -21 57 75 l 57 925 l 232 925 l 232 214 b 318 129 232 160 263 129 b 406 214 375 129 406 160 l 406 925 l 574 925 l 574 214 m 282 978 l 171 1168 l 311 1168 l 364 978 "},"Ú":{"ha":632,"x_min":0,"x_max":0,"o":"m 574 214 b 318 -21 574 75 468 -21 b 57 214 168 -21 57 75 l 57 925 l 232 925 l 232 214 b 318 129 232 160 263 129 b 406 214 375 129 406 160 l 406 925 l 574 925 l 574 214 m 357 978 l 275 978 l 326 1168 l 468 1168 "},"Û":{"ha":632,"x_min":0,"x_max":0,"o":"m 574 214 b 318 -21 574 75 468 -21 b 57 214 168 -21 57 75 l 57 925 l 232 925 l 232 214 b 318 129 232 160 263 129 b 406 214 375 129 406 160 l 406 925 l 574 925 l 574 214 m 500 992 b 438 982 479 985 456 982 b 321 1089 381 982 338 1019 b 203 982 304 1019 260 982 b 149 992 185 982 168 985 l 149 1031 b 265 1163 199 1031 243 1074 l 381 1163 b 500 1031 404 1074 449 1031 l 500 992 "},"Ü":{"ha":632,"x_min":0,"x_max":0,"o":"m 574 214 b 318 -21 574 75 468 -21 b 57 214 168 -21 57 75 l 57 925 l 232 925 l 232 214 b 318 129 232 160 263 129 b 406 214 375 129 406 160 l 406 925 l 574 925 l 574 214 m 356 1004 l 356 1139 l 471 1139 l 471 1004 m 172 1004 l 172 1139 l 286 1139 l 286 1004 "},"Ý":{"ha":578,"x_min":0,"x_max":0,"o":"m 374 378 l 374 0 l 201 0 l 201 378 l -3 925 l 178 925 l 297 549 l 411 925 l 583 925 m 333 978 l 251 978 l 303 1168 l 444 1168 "},"Þ":{"ha":586,"x_min":0,"x_max":0,"o":"m 554 406 b 346 197 554 272 475 197 l 232 197 l 232 0 l 60 0 l 60 925 l 233 925 l 233 769 l 346 769 b 554 561 475 769 554 693 l 554 406 m 388 558 b 328 628 388 604 371 628 l 232 628 l 232 332 l 328 332 b 388 401 371 332 388 354 "},"ß":{"ha":529,"x_min":0,"x_max":0,"o":"m 482 167 b 313 -11 482 51 413 -11 b 258 6 293 -11 269 -4 l 258 79 b 336 156 313 79 336 106 l 336 367 b 261 439 336 414 317 439 l 261 546 b 343 622 319 546 343 575 l 343 725 b 275 807 343 776 321 807 b 206 724 228 807 206 776 l 206 0 l 58 0 l 58 699 b 267 925 58 835 131 925 b 476 707 407 925 476 839 l 476 642 b 397 492 476 576 450 517 b 482 340 460 464 482 417 l 482 167 "},"à":{"ha":499,"x_min":0,"x_max":0,"o":"m 438 -11 b 329 74 383 -11 343 14 b 181 -11 297 18 246 -11 b 29 160 93 -11 29 51 l 29 179 b 297 404 29 314 142 365 l 297 500 b 240 558 297 536 279 558 b 186 497 200 558 186 538 l 186 449 l 53 449 l 53 490 b 247 678 53 597 114 678 b 439 475 381 678 439 592 l 439 128 b 472 93 439 106 449 94 l 472 -11 m 297 313 b 168 199 210 293 168 260 l 168 161 b 224 99 168 125 188 99 b 297 168 264 99 297 128 m 207 751 l 96 942 l 236 942 l 289 751 "},"á":{"ha":499,"x_min":0,"x_max":0,"o":"m 438 -11 b 329 74 383 -11 343 14 b 181 -11 297 18 246 -11 b 29 160 93 -11 29 51 l 29 179 b 297 404 29 314 142 365 l 297 500 b 240 558 297 536 279 558 b 186 497 200 558 186 538 l 186 449 l 53 449 l 53 490 b 247 678 53 597 114 678 b 439 475 381 678 439 592 l 439 128 b 472 93 439 106 449 94 l 472 -11 m 297 313 b 168 199 210 293 168 260 l 168 161 b 224 99 168 125 188 99 b 297 168 264 99 297 128 m 285 751 l 203 751 l 254 942 l 396 942 "},"â":{"ha":499,"x_min":0,"x_max":0,"o":"m 438 -11 b 329 74 383 -11 343 14 b 181 -11 297 18 246 -11 b 29 160 93 -11 29 51 l 29 179 b 297 404 29 314 142 365 l 297 500 b 240 558 297 536 279 558 b 186 497 200 558 186 538 l 186 449 l 53 449 l 53 490 b 247 678 53 597 114 678 b 439 475 381 678 439 592 l 439 128 b 472 93 439 106 449 94 l 472 -11 m 297 313 b 168 199 210 293 168 260 l 168 161 b 224 99 168 125 188 99 b 297 168 264 99 297 128 m 426 765 b 364 756 406 758 382 756 b 247 863 307 756 264 793 b 129 756 231 793 186 756 b 75 765 111 756 94 758 l 75 804 b 192 936 125 804 169 847 l 307 936 b 426 804 331 847 375 804 l 426 765 "},"ã":{"ha":499,"x_min":0,"x_max":0,"o":"m 438 -11 b 329 74 383 -11 343 14 b 181 -11 297 18 246 -11 b 29 160 93 -11 29 51 l 29 179 b 297 404 29 314 142 365 l 297 500 b 240 558 297 536 279 558 b 186 497 200 558 186 538 l 186 449 l 53 449 l 53 490 b 247 678 53 597 114 678 b 439 475 381 678 439 592 l 439 128 b 472 93 439 106 449 94 l 472 -11 m 297 313 b 168 199 210 293 168 260 l 168 161 b 224 99 168 125 188 99 b 297 168 264 99 297 128 m 422 879 b 319 769 422 814 389 769 b 164 836 256 769 200 836 b 136 804 144 836 136 824 l 136 772 l 79 772 b 61 828 67 789 61 806 b 161 938 61 894 93 938 b 318 872 226 938 283 872 b 347 904 339 872 347 885 l 347 938 l 404 938 b 422 879 415 919 422 901 "},"ä":{"ha":499,"x_min":0,"x_max":0,"o":"m 438 -11 b 329 74 383 -11 343 14 b 181 -11 297 18 246 -11 b 29 160 93 -11 29 51 l 29 179 b 297 404 29 314 142 365 l 297 500 b 240 558 297 536 279 558 b 186 497 200 558 186 538 l 186 449 l 53 449 l 53 490 b 247 678 53 597 114 678 b 439 475 381 678 439 592 l 439 128 b 472 93 439 106 449 94 l 472 -11 m 297 313 b 168 199 210 293 168 260 l 168 161 b 224 99 168 125 188 99 b 297 168 264 99 297 128 m 278 778 l 278 913 l 393 913 l 393 778 m 94 778 l 94 913 l 208 913 l 208 778 "},"å":{"ha":499,"x_min":0,"x_max":0,"o":""},"æ":{"ha":751,"x_min":0,"x_max":0,"o":"m 711 199 b 528 -11 711 72 636 -11 b 367 68 463 -11 400 14 b 194 -11 331 18 271 -11 b 31 160 93 -11 31 56 l 31 179 b 299 404 31 314 143 365 l 299 493 b 240 556 299 531 282 556 b 183 494 201 556 183 535 l 183 449 l 56 449 l 56 490 b 233 678 56 597 118 678 b 375 601 300 678 346 647 b 528 678 406 647 464 678 b 711 467 640 678 711 592 l 711 319 l 450 319 l 450 181 b 515 110 450 139 471 110 b 581 181 558 110 581 139 l 581 242 l 711 242 l 711 199 m 576 486 b 514 557 576 528 554 557 b 450 486 472 557 450 528 l 450 389 l 576 389 m 299 313 b 169 199 210 293 169 260 l 169 164 b 225 101 169 128 189 101 b 299 172 265 101 299 132 "},"ç":{"ha":479,"x_min":0,"x_max":0,"o":"m 199 -6 b 47 203 107 14 47 89 l 47 463 b 251 678 47 594 131 678 b 444 464 374 678 444 596 l 444 421 l 321 421 l 321 486 b 256 560 321 531 299 560 b 189 483 213 560 189 531 l 189 182 b 256 107 189 135 213 107 b 321 179 299 107 321 136 l 321 246 l 444 246 l 444 201 b 261 -11 444 74 378 -6 l 199 -96 b 247 -86 210 -87 232 -86 b 361 -204 319 -86 361 -135 b 235 -321 361 -269 307 -321 b 183 -307 211 -321 192 -312 l 183 -262 l 208 -262 b 263 -217 243 -262 263 -247 l 263 -179 b 208 -132 263 -147 243 -132 b 153 -161 189 -132 171 -142 l 110 -129 l 199 -6 "},"è":{"ha":492,"x_min":0,"x_max":0,"o":"m 450 199 b 251 -11 450 72 374 -11 b 47 200 131 -11 47 74 l 47 467 b 251 678 47 592 131 678 b 450 467 374 678 450 592 l 450 319 l 189 319 l 189 176 b 253 107 189 135 211 107 b 318 176 299 107 318 135 l 318 242 l 450 242 l 450 199 m 315 489 b 253 560 315 532 293 560 b 189 489 213 560 189 532 l 189 389 l 315 389 m 213 751 l 101 942 l 242 942 l 294 751 "},"é":{"ha":492,"x_min":0,"x_max":0,"o":"m 450 199 b 251 -11 450 72 374 -11 b 47 200 131 -11 47 74 l 47 467 b 251 678 47 592 131 678 b 450 467 374 678 450 592 l 450 319 l 189 319 l 189 176 b 253 107 189 135 211 107 b 318 176 299 107 318 135 l 318 242 l 450 242 l 450 199 m 315 489 b 253 560 315 532 293 560 b 189 489 213 560 189 532 l 189 389 l 315 389 m 293 751 l 211 751 l 263 942 l 404 942 "},"ê":{"ha":492,"x_min":0,"x_max":0,"o":"m 450 199 b 251 -11 450 72 374 -11 b 47 200 131 -11 47 74 l 47 467 b 251 678 47 592 131 678 b 450 467 374 678 450 592 l 450 319 l 189 319 l 189 176 b 253 107 189 135 211 107 b 318 176 299 107 318 135 l 318 242 l 450 242 l 450 199 m 315 489 b 253 560 315 532 293 560 b 189 489 213 560 189 532 l 189 389 l 315 389 m 425 765 b 363 756 404 758 381 756 b 246 863 306 756 263 793 b 128 756 229 793 185 756 b 74 765 110 756 93 758 l 74 804 b 190 936 124 804 168 847 l 306 936 b 425 804 329 847 374 804 l 425 765 "},"ë":{"ha":492,"x_min":0,"x_max":0,"o":"m 450 199 b 251 -11 450 72 374 -11 b 47 200 131 -11 47 74 l 47 467 b 251 678 47 592 131 678 b 450 467 374 678 450 592 l 450 319 l 189 319 l 189 176 b 253 107 189 135 211 107 b 318 176 299 107 318 135 l 318 242 l 450 242 l 450 199 m 315 489 b 253 560 315 532 293 560 b 189 489 213 560 189 532 l 189 389 l 315 389 m 283 778 l 283 913 l 399 913 l 399 778 m 100 778 l 100 913 l 214 913 l 214 778 "},"ì":{"ha":257,"x_min":0,"x_max":0,"o":""},"í":{"ha":257,"x_min":0,"x_max":0,"o":""},"î":{"ha":257,"x_min":0,"x_max":0,"o":""},"ï":{"ha":257,"x_min":0,"x_max":0,"o":""},"ð":{"ha":508,"x_min":0,"x_max":0,"o":"m 429 900 l 456 836 l 396 810 b 461 553 438 740 461 656 l 461 201 b 251 -11 461 68 369 -11 b 47 201 135 -11 47 68 l 47 493 b 193 667 47 589 110 667 b 317 603 247 667 282 646 b 275 754 314 660 300 711 l 190 717 l 165 781 l 238 814 b 122 921 207 853 168 888 l 122 925 l 294 925 b 354 867 317 907 338 888 m 189 174 b 251 107 189 136 215 107 b 317 174 289 107 317 136 l 317 479 b 253 554 317 525 292 554 b 189 478 214 554 189 531 l 189 174 "},"ñ":{"ha":528,"x_min":0,"x_max":0,"o":"m 329 0 l 329 492 b 272 558 329 532 306 558 b 201 467 228 558 201 501 l 201 0 l 56 0 l 56 667 l 182 667 l 190 558 b 333 678 218 638 272 678 b 475 511 425 678 475 611 l 475 0 m 435 879 b 332 769 435 814 401 769 b 176 836 268 769 213 836 b 149 804 157 836 149 824 l 149 772 l 92 772 b 74 828 79 789 74 806 b 174 938 74 894 106 938 b 331 872 239 938 296 872 b 360 904 351 872 360 885 l 360 938 l 417 938 b 435 879 428 919 435 901 "},"ò":{"ha":504,"x_min":0,"x_max":0,"o":"m 457 203 b 253 -11 457 69 374 -11 b 47 203 131 -11 47 69 l 47 463 b 253 678 47 594 131 678 b 457 463 374 678 457 594 l 457 203 m 315 490 b 253 560 315 531 290 560 b 190 490 213 560 190 531 l 190 175 b 253 107 190 135 213 107 b 315 175 290 107 315 135 m 213 751 l 101 942 l 242 942 l 294 751 "},"ó":{"ha":504,"x_min":0,"x_max":0,"o":"m 457 203 b 253 -11 457 69 374 -11 b 47 203 131 -11 47 69 l 47 463 b 253 678 47 594 131 678 b 457 463 374 678 457 594 l 457 203 m 315 490 b 253 560 315 531 290 560 b 190 490 213 560 190 531 l 190 175 b 253 107 190 135 213 107 b 315 175 290 107 315 135 m 296 751 l 214 751 l 265 942 l 407 942 "},"ô":{"ha":504,"x_min":0,"x_max":0,"o":"m 457 203 b 253 -11 457 69 374 -11 b 47 203 131 -11 47 69 l 47 463 b 253 678 47 594 131 678 b 457 463 374 678 457 594 l 457 203 m 315 490 b 253 560 315 531 290 560 b 190 490 213 560 190 531 l 190 175 b 253 107 190 135 213 107 b 315 175 290 107 315 135 m 435 765 b 372 756 414 758 390 756 b 256 863 315 756 272 793 b 138 756 239 793 194 756 b 83 765 119 756 103 758 l 83 804 b 200 936 133 804 178 847 l 315 936 b 435 804 339 847 383 804 l 435 765 "},"õ":{"ha":504,"x_min":0,"x_max":0,"o":"m 457 203 b 253 -11 457 69 374 -11 b 47 203 131 -11 47 69 l 47 463 b 253 678 47 594 131 678 b 457 463 374 678 457 594 l 457 203 m 315 490 b 253 560 315 531 290 560 b 190 490 213 560 190 531 l 190 175 b 253 107 190 135 213 107 b 315 175 290 107 315 135 m 429 879 b 326 769 429 814 396 769 b 171 836 263 769 207 836 b 143 804 151 836 143 824 l 143 772 l 86 772 b 68 828 74 789 68 806 b 168 938 68 894 100 938 b 325 872 233 938 290 872 b 354 904 346 872 354 885 l 354 938 l 411 938 b 429 879 422 919 429 901 "},"ö":{"ha":504,"x_min":0,"x_max":0,"o":"m 457 203 b 253 -11 457 69 374 -11 b 47 203 131 -11 47 69 l 47 463 b 253 678 47 594 131 678 b 457 463 374 678 457 594 l 457 203 m 315 490 b 253 560 315 531 290 560 b 190 490 213 560 190 531 l 190 175 b 253 107 190 135 213 107 b 315 175 290 107 315 135 m 288 778 l 288 913 l 403 913 l 403 778 m 104 778 l 104 913 l 218 913 l 218 778 "},"ø":{"ha":504,"x_min":0,"x_max":0,"o":"m 493 665 b 435 569 493 665 467 622 b 457 463 449 540 457 504 l 457 203 b 253 -11 457 69 374 -11 b 110 42 194 -11 144 7 l 61 -37 l 13 1 l 69 94 b 47 203 56 125 47 161 l 47 463 b 253 678 47 594 131 678 b 394 625 311 678 360 658 l 443 703 l 493 665 m 315 494 b 253 560 314 532 289 560 b 190 490 213 560 190 531 b 190 290 190 490 190 292 l 315 494 m 315 375 b 190 174 315 376 190 174 b 253 107 190 133 213 107 b 315 175 290 107 315 135 "},"ù":{"ha":531,"x_min":0,"x_max":0,"o":"m 350 0 l 343 100 b 197 -11 315 26 258 -11 b 54 154 104 -11 54 56 l 54 667 l 201 667 l 201 174 b 258 107 201 133 225 107 b 328 199 301 107 328 163 l 328 667 l 474 667 l 474 0 m 225 751 l 114 942 l 254 942 l 307 751 "},"ú":{"ha":531,"x_min":0,"x_max":0,"o":"m 350 0 l 343 100 b 197 -11 315 26 258 -11 b 54 154 104 -11 54 56 l 54 667 l 201 667 l 201 174 b 258 107 201 133 225 107 b 328 199 301 107 328 163 l 328 667 l 474 667 l 474 0 m 304 751 l 222 751 l 274 942 l 415 942 "},"û":{"ha":531,"x_min":0,"x_max":0,"o":"m 350 0 l 343 100 b 197 -11 315 26 258 -11 b 54 154 104 -11 54 56 l 54 667 l 201 667 l 201 174 b 258 107 201 133 225 107 b 328 199 301 107 328 163 l 328 667 l 474 667 l 474 0 m 444 765 b 382 756 424 758 400 756 b 265 863 325 756 282 793 b 147 756 249 793 204 756 b 93 765 129 756 113 758 l 93 804 b 210 936 143 804 188 847 l 325 936 b 444 804 349 847 393 804 l 444 765 "},"ü":{"ha":531,"x_min":0,"x_max":0,"o":"m 350 0 l 343 100 b 197 -11 315 26 258 -11 b 54 154 104 -11 54 56 l 54 667 l 201 667 l 201 174 b 258 107 201 133 225 107 b 328 199 301 107 328 163 l 328 667 l 474 667 l 474 0 m 300 778 l 300 913 l 415 913 l 415 778 m 117 778 l 117 913 l 231 913 l 231 778 "},"ý":{"ha":463,"x_min":0,"x_max":0,"o":"m 293 -21 b 92 -222 263 -147 229 -222 l 50 -222 l 50 -111 l 81 -111 b 156 -46 133 -111 144 -93 l 167 11 l 11 667 l 153 667 l 215 338 l 236 208 l 256 338 l 317 667 l 454 667 m 275 751 l 193 751 l 244 942 l 386 942 "},"þ":{"ha":518,"x_min":0,"x_max":0,"o":"m 471 161 b 331 -11 471 65 408 -11 b 201 54 272 -11 238 10 l 201 -218 l 56 -218 l 56 925 l 201 925 l 201 613 b 331 678 238 657 272 678 b 471 506 408 678 471 601 l 471 161 m 329 478 b 265 556 329 529 304 556 b 201 481 226 556 201 526 l 201 185 b 265 110 201 140 226 110 b 329 189 304 110 329 138 "},"ÿ":{"ha":463,"x_min":0,"x_max":0,"o":"m 293 -21 b 92 -222 263 -147 229 -222 l 50 -222 l 50 -111 l 81 -111 b 156 -46 133 -111 144 -93 l 167 11 l 11 667 l 153 667 l 215 338 l 236 208 l 256 338 l 317 667 l 454 667 m 272 778 l 272 913 l 388 913 l 388 778 m 89 778 l 89 913 l 203 913 l 203 778 "}}}
